<svg aria-hidden="true" style="position:absolute;width:0;height:0;overflow:hidden" xmlns="http://www.w3.org/2000/svg">
  <defs>
    <symbol id="arrow-left" viewBox="0 0 32 32">
      <path stroke-linejoin="round" stroke-linecap="round" stroke-width="2.7" d="M25 16H7m9 9-9-9 9-9"/>
    </symbol>
    <symbol id="arrow-right" viewBox="0 0 32 32">
      <path stroke-linejoin="round" stroke-linecap="round" stroke-width="2.7" d="M7 16h18m-9 9 9-9-9-9"/>
    </symbol>
    <symbol id="film" viewBox="0 0 32 32">
      <path fill="none" stroke="#818181" style="stroke:var(--color1, #818181)" stroke-linejoin="round" stroke-linecap="round" stroke-width="2.7" d="M26 3H6C4 3 3 4 3 6v20c0 2 1 3 3 3v0h20c2 0 3-1 3-3v0V6c0-2-1-3-3-3v0zM9 3v26M23 3v26M3 16h26M3 9h6M3 23h6m14 0h6M23 9h6"/>
    </symbol>
    <symbol id="heart" viewBox="0 0 32 32">
      <path fill="#ff6b08" style="fill:var(--color2, #ff6b08)" d="m16 31-2-3C5 21 0 16 0 10c0-5 4-9 9-9 3 0 5 1 7 4 2-3 4-4 7-4 5 0 9 4 9 9 0 6-5 11-14 18l-2 3z"/>
    </symbol>
    <symbol id="search" viewBox="0 0 32 32">
<path fill="none" stroke="#fff" style="stroke: var(--color1, #fff)" stroke-linejoin="round" stroke-linecap="round" stroke-miterlimit="4" stroke-width="2.6667" d="M14.667 25.333c5.891 0 10.667-4.776 10.667-10.667s-4.776-10.667-10.667-10.667c-5.891 0-10.667 4.776-10.667 10.667s4.776 10.667 10.667 10.667z"></path>
<path fill="none" stroke="#fff" style="stroke: var(--color1, #fff)" stroke-linejoin="round" stroke-linecap="round" stroke-miterlimit="4" stroke-width="2.6667" d="M28 28.001l-5.8-5.8"></path>
</symbol>
    
    <symbol id="close" viewBox="0 0 32 32">
      <path d="M23.733 10.304l-1.504-1.504-5.963 5.963-5.963-5.963-1.504 1.504 5.963 5.963-5.963 5.963 1.504 1.504 5.963-5.963 5.963 5.963 1.504-1.504-5.963-5.963 5.963-5.963z"></path>
    </symbol>
    <symbol id="arrowRight" width="16" height="16" fill="none" xmlns="http://www.w3.org/2000/svg">
      <path d="M3.333 8h9.334M8 12.667 12.667 8 8 3.333" stroke="#000" stroke-width="1.333" stroke-linecap="round" stroke-linejoin="round"/>
    </symbol>
    <symbol id="arrowLeft" width="16" height="16" fill="none" xmlns="http://www.w3.org/2000/svg">
      <path d="M12.667 8H3.333M8 12.667 3.333 8 8 3.333" stroke="#000" stroke-width="1.333" stroke-linecap="round" stroke-linejoin="round"/>
    </symbol>
    <symbol id="icon-user-secret" viewBox="0 0 22 28">
      <path d="m9 24 2-7-2-2-2-1zm4 0 2-10-2 1-1 2zm3-16h-5a13 13 0 0 0-4 0v1c0 1 0 2 2 2s1-2 2-2 0 2 2 2 2-1 2-2V8zm6 14c0 2-2 4-4 4H4c-2 0-4-1-4-4s0-7 3-9l-1-3h3a6 6 0 0 1 0-2L2 6l3-2 2-3 1-1 3 1 3-1 1 1 2 3 3 2-3 2v2h3l-1 4c3 1 3 5 3 8z"/>
    </symbol>
  </defs>
</svg>
