<svg aria-hidden="true" style="position:absolute;width:0;height:0;overflow:hidden" xmlns="http://www.w3.org/2000/svg">
  <defs>
    <symbol id="arrow-left" viewBox="0 0 32 32">
      <path stroke-linejoin="round" stroke-linecap="round" stroke-width="2.7" d="M25 16H7m9 9-9-9 9-9"/>
    </symbol>
    <symbol id="arrow-right" viewBox="0 0 32 32">
      <path stroke-linejoin="round" stroke-linecap="round" stroke-width="2.7" d="M7 16h18m-9 9 9-9-9-9"/>
    </symbol>
    <symbol id="film" viewBox="0 0 32 32">
      <path fill="none" stroke="#818181" style="stroke:var(--color1, #818181)" stroke-linejoin="round" stroke-linecap="round" stroke-width="2.7" d="M26 3H6C4 3 3 4 3 6v20c0 2 1 3 3 3v0h20c2 0 3-1 3-3v0V6c0-2-1-3-3-3v0zM9 3v26M23 3v26M3 16h26M3 9h6M3 23h6m14 0h6M23 9h6"/>
    </symbol>
    <symbol id="heart" viewBox="0 0 32 32">
      <path fill="#ff6b08" style="fill:var(--color2, #ff6b08)" d="m16 31-2-3C5 21 0 16 0 10c0-5 4-9 9-9 3 0 5 1 7 4 2-3 4-4 7-4 5 0 9 4 9 9 0 6-5 11-14 18l-2 3z"/>
    </symbol>
    <symbol id="search" viewBox="0 0 32 32">
      <path fill="none" stroke="#fff" style="stroke:var(--color3, #fff)" stroke-linejoin="round" stroke-linecap="round" stroke-width="2.7" d="M15 25a11 11 0 1 0 0-21v0a11 11 0 1 0 0 21v0zm13 3-6-6"/>
    </symbol>
    <symbol id="close" viewBox="0 0 32 32">
      <path stroke-linejoin="miter" stroke-linecap="butt" stroke-miterlimit="4" stroke-width="2.1333" d="M8.533 8.533l14.933 14.933M8.533 23.467l14.933-14.933"></path>
    </symbol>
  </defs>
</svg>
